<svg xmlns="http://www.w3.org/2000/svg" viewBox="0 0 64 64" role="img" aria-label="ServX">
  <defs>
    <linearGradient id="g" x1="0" y1="0" x2="1" y2="1">
      <stop offset="0%" stop-color="#f4c95d" />
      <stop offset="100%" stop-color="#d7a63b" />
    </linearGradient>
  </defs>
  <rect x="4" y="4" width="56" height="56" rx="14" fill="#121212" />
  <path d="M42.9 21.4c-2.2-2.2-5.1-3.4-8.4-3.4-6 0-10.5 3.5-10.5 8.2 0 8.3 14.4 6.4 14.4 12 0 2-1.8 3.3-4.7 3.3-3 0-5.8-1.3-7.7-3.6l-3.5 3.3c2.8 3.3 6.9 5.1 11.3 5.1 6.4 0 10.9-3.5 10.9-8.5 0-8.5-14.4-6.7-14.4-11.9 0-1.8 1.7-3 4.3-3 2.3 0 4.4 0.9 6 2.5z" fill="url(#g)"/>
  <path d="M46.4 46l-4.8-6.3L36.9 46h-5.6l7.6-9.8-7.3-9.5h5.8l4.4 6 4.5-6h5.5L44.6 36l7.5 10z" fill="url(#g)"/>
</svg>
